<svg xmlns="http://www.w3.org/2000/svg" viewBox="0 0 626.7554321289062 620.1521606445312" width="100%" height="100%" preserveAspectRatio="xMidYMid meet">
       <g transform="translate(-199.5052490234375, -201.55763244628906)">
         

<path d="M0 0 C15.56 12.41 27.15 30.04 30 50 C30.09 52.57 30.14 55.1 30.13 57.67 C30.13 58.43 30.13 59.18 30.13 59.96 C30.14 62.5 30.14 65.04 30.13 67.57 C30.14 69.41 30.14 71.25 30.14 73.08 C30.15 78.13 30.15 83.18 30.15 88.23 C30.15 93.67 30.15 99.11 30.16 104.56 C30.16 115.23 30.17 125.89 30.17 136.56 C30.17 145.23 30.17 153.9 30.17 162.58 C30.18 187.16 30.19 211.74 30.19 236.33 C30.19 236.66 30.19 236.66 30.19 238.34 C30.19 239.68 30.19 241.02 30.19 242.36 C30.18 263.19 30.19 284.03 30.21 304.87 C30.22 328.29 30.23 351.71 30.23 375.13 C30.23 387.52 30.23 399.92 30.24 412.32 C30.25 422.87 30.25 433.43 30.25 443.99 C30.24 449.37 30.24 454.76 30.25 460.14 C30.26 465.07 30.26 470.01 30.25 474.94 C30.25 476.72 30.25 478.5 30.26 480.28 C30.33 505.18 24.21 526.78 6.3 544.95 C-9.99 560.55 -30.25 565.82 -52.27 565.37 C-72.11 564.45 -89.25 552.31 -105.45 541.91 C-111.88 537.78 -118.41 533.86 -125 530 C-125.74 529.56 -126.49 529.13 -127.25 528.67 C-160.58 509.13 -195.28 492.19 -232 480 C-232.76 479.75 -233.52 479.49 -234.3 479.23 C-280.05 464.02 -326.14 460.58 -374 461 C-374.39 461.71 -374.78 462.42 -375.19 463.15 C-377.04 466.49 -378.89 469.84 -380.75 473.19 C-381.09 473.8 -381.43 474.41 -381.78 475.05 C-386.17 482.96 -390.61 490.85 -395.12 498.69 C-399.3 505.94 -403.34 513.26 -407.31 520.62 C-416.84 538.29 -426.54 555.86 -436.56 573.25 C-437.12 574.23 -437.68 575.21 -438.26 576.22 C-445.79 589.2 -454.92 597.93 -469.73 602.11 C-483.69 605.4 -497.14 603.65 -509.54 596.54 C-511.78 595.12 -513.89 593.61 -516 592 C-516.61 591.55 -517.23 591.1 -517.86 590.64 C-528.37 582.39 -533.89 569.7 -537 557 C-538.29 544.46 -536.01 534.35 -531.87 522.6 C-530.33 518 -529.13 513.31 -527.88 508.62 C-523.22 491.56 -517.55 474.79 -512 458 C-513.22 458.03 -514.44 458.05 -515.69 458.08 C-518.98 458.08 -521.74 457.77 -524.88 456.75 C-525.73 456.48 -526.58 456.2 -527.46 455.92 C-528.34 455.62 -529.22 455.31 -530.12 455 C-531.05 454.69 -531.97 454.37 -532.92 454.05 C-557.06 445.5 -575.74 428.17 -587.15 405.4 C-592.61 393.94 -596.15 381.41 -596.15 368.7 C-596.15 367.87 -596.15 367.03 -596.16 366.18 C-596.17 363.39 -596.17 360.6 -596.18 357.81 C-596.18 355.81 -596.19 353.81 -596.2 351.8 C-596.22 345.23 -596.23 338.66 -596.24 332.08 C-596.24 329.81 -596.25 327.55 -596.25 325.28 C-596.27 314.61 -596.28 303.95 -596.29 293.28 C-596.3 281 -596.33 268.72 -596.37 256.44 C-596.4 246.93 -596.41 237.42 -596.42 227.91 C-596.42 222.24 -596.43 216.57 -596.45 210.9 C-596.48 205.55 -596.48 200.21 -596.47 194.86 C-596.47 192.91 -596.48 190.97 -596.49 189.02 C-596.59 173.43 -595.16 158.05 -588.38 143.75 C-588.03 143.01 -587.69 142.27 -587.34 141.51 C-575.97 117.86 -556.23 101.22 -531.69 92.38 C-530.13 91.91 -528.56 91.45 -527 91 C-526.58 90.87 -526.58 90.87 -524.43 90.23 C-511.83 86.98 -498.97 87.54 -486.05 87.52 C-483.43 87.51 -480.8 87.49 -478.18 87.48 C-471.99 87.44 -465.81 87.41 -459.62 87.4 C-447.92 87.36 -436.22 87.3 -424.52 87.23 C-420.71 87.21 -416.9 87.2 -413.09 87.19 C-394.47 87.12 -376.02 86.47 -357.5 84.44 C-356.76 84.36 -356.02 84.28 -355.25 84.19 C-341.83 82.7 -328.58 80.49 -315.31 78 C-314.42 77.83 -313.52 77.67 -312.6 77.49 C-297.49 74.64 -282.39 71.58 -267.69 67 C-266.76 66.71 -265.82 66.42 -264.86 66.13 C-209.88 48.97 -157.06 27.22 -105.17 2.29 C-103.54 1.51 -101.92 0.73 -100.29 -0.05 C-97.24 -1.51 -94.19 -2.98 -91.15 -4.47 C-82.57 -8.61 -74.28 -11.72 -65 -14 C-64.11 -14.23 -63.21 -14.46 -62.29 -14.7 C-40.92 -20 -17.36 -12.67 0 0 Z " fill="#060507" transform="translate(796,218)" style="fill:#060507;" id="__0_"/>
<path d="M0 0 C8.56 3.89 14.46 12.37 17.76 20.97 C21.49 32.22 21.06 44.17 21.27 55.9 C21.33 58.8 21.44 61.68 21.6 64.58 C22.84 87.81 22.84 87.81 18.22 94.63 C13.89 98.99 8.97 101.9 3.52 104.64 C-0.78 106.96 -4.57 109.97 -8.44 112.94 C-9.32 113.58 -10.19 114.23 -11.1 114.9 C-16.76 119.07 -22.38 123.28 -28 127.5 C-41.32 137.51 -54.72 147.4 -68.25 157.12 C-75.54 162.37 -82.76 167.69 -90 173 C-71.85 173.17 -71.85 173.17 20 174 C20 184.56 20 195.12 20 206 C-43.03 206 -106.06 206 -171 206 C-170.34 208.31 -170.34 208.31 -167 220 C-162.93 244.4 -167.89 269 -181 290 C-183.02 292.74 -185.1 295.38 -187.3 297.98 C-189 300 -189 300 -191 303 C-121.37 303 -51.74 303 20 303 C20 313.89 20 324.78 20 336 C2.35 336.16 2.35 336.16 -87 337 C-80.73 341.29 -74.46 345.58 -68 350 C-58.88 356.56 -58.88 356.56 -54.4 359.82 C-50.13 362.92 -45.82 365.97 -41.5 369 C-35.63 373.12 -29.81 377.29 -24 381.5 C-15.38 387.74 -6.7 393.88 2 400 C5.17 402.23 8.33 404.46 11.5 406.69 C12.24 407.21 12.97 407.72 13.73 408.26 C18.89 411.89 18.89 411.89 20 413 C20.09 414.42 20.11 415.84 20.1 417.25 C20.09 418.11 20.09 418.96 20.09 419.84 C20.08 420.74 20.07 421.64 20.06 422.56 C20.06 423.46 20.05 424.37 20.05 425.29 C20.04 427.53 20.02 429.76 20 432 C13.07 427.78 6.48 423.23 -0.03 418.4 C-4.75 414.91 -9.51 411.5 -14.31 408.12 C-21.07 403.37 -27.79 398.56 -34.48 393.72 C-38.98 390.46 -43.48 387.22 -48 384 C-53.29 380.23 -58.55 376.43 -63.81 372.62 C-70.47 367.81 -77.15 363.05 -83.87 358.32 C-89.45 354.39 -95.01 350.43 -100.56 346.45 C-101.1 346.07 -101.64 345.7 -102.19 345.31 C-103.54 344.34 -104.84 343.31 -106.12 342.25 C-112.64 337.14 -117.3 336.02 -125.48 336.32 C-126 336.32 -126 336.32 -128.66 336.35 C-131.98 336.39 -135.3 336.47 -138.62 336.56 C-140.89 336.6 -143.16 336.63 -145.43 336.66 C-150.95 336.73 -156.48 336.85 -162 337 C-161.06 337.67 -160.13 338.33 -159.16 339.02 C-157.9 339.91 -156.65 340.8 -155.39 341.7 C-155.09 341.91 -155.09 341.91 -153.53 343.02 C-149.51 345.88 -145.58 348.83 -141.69 351.88 C-136.12 356.2 -130.42 360.29 -124.65 364.33 C-119.42 367.99 -114.23 371.7 -109.06 375.44 C-108.32 375.98 -107.57 376.52 -106.8 377.07 C-105.29 378.17 -103.78 379.26 -102.27 380.36 C-98.51 383.08 -94.76 385.79 -91 388.5 C-89.5 389.58 -88 390.67 -86.5 391.75 C-85.76 392.29 -85.01 392.82 -84.25 393.38 C-41.5 424.25 -41.5 424.25 -39.25 425.88 C-37.75 426.96 -36.26 428.04 -34.76 429.12 C-30.96 431.86 -27.16 434.61 -23.36 437.36 C-21.82 438.47 -20.29 439.58 -18.75 440.69 C-18.38 440.96 -18.38 440.96 -16.48 442.33 C-12.47 445.22 -8.46 448.1 -4.42 450.96 C0.87 454.71 6.1 458.54 11.25 462.5 C11.8 462.92 12.35 463.34 12.92 463.78 C15.06 465.44 17.08 467.08 19 469 C20.28 479.25 14.03 489.15 8 497 C6.38 498.38 4.72 499.73 3 501 C-2.08 499.37 -5.95 496.32 -10.19 493.19 C-11.81 492 -13.43 490.82 -15.05 489.63 C-15.88 489.03 -16.7 488.42 -17.55 487.8 C-21.31 485.04 -25.09 482.3 -28.88 479.56 C-29.61 479.03 -30.35 478.5 -31.11 477.95 C-36.7 473.91 -42.34 469.95 -48 466 C-56.66 459.96 -65.24 453.81 -73.78 447.61 C-77.52 444.9 -81.26 442.2 -85 439.5 C-86.5 438.42 -88 437.33 -89.5 436.25 C-90.24 435.71 -90.99 435.18 -91.75 434.62 C-98.5 429.75 -98.5 429.75 -100.75 428.12 C-102.25 427.04 -103.75 425.96 -105.25 424.88 C-109.01 422.16 -112.78 419.44 -116.54 416.71 C-124.52 410.93 -132.54 405.19 -140.61 399.52 C-146.52 395.35 -152.39 391.11 -158.25 386.87 C-164.1 382.63 -169.99 378.45 -175.9 374.31 C-181.65 370.27 -187.31 366.13 -193 362 C-193 384.11 -193 406.22 -193 429 C-197.89 428.3 -201.78 427.59 -206.38 426.12 C-207.51 425.77 -208.65 425.41 -209.82 425.04 C-212.29 424.23 -214.74 423.41 -217.19 422.56 C-232.82 417.35 -248.79 413.89 -265 411 C-266.05 410.81 -267.11 410.62 -268.19 410.42 C-290.07 406.6 -311.82 405.89 -334 405 C-334 390.15 -334 375.3 -334 360 C-346.24 367.79 -346.24 367.79 -351.12 371.69 C-356.73 376.09 -362.49 380.23 -368.33 384.31 C-372.2 387.02 -376.06 389.76 -379.88 392.55 C-380.68 393.13 -381.48 393.72 -382.31 394.32 C-383.86 395.45 -385.4 396.59 -386.94 397.72 C-388.94 399.18 -390.96 400.6 -393 402 C-393.9 402.61 -394.79 403.23 -395.71 403.86 C-401.02 405.7 -406.31 405.31 -411.88 405.19 C-413.04 405.17 -414.21 405.16 -415.41 405.15 C-418.27 405.11 -421.14 405.06 -424 405 C-414.56 397.42 -404.91 390.16 -395.08 383.1 C-389.52 379.11 -384 375.07 -378.5 371 C-372.24 366.37 -365.95 361.79 -359.62 357.25 C-353.15 352.6 -346.79 347.83 -340.5 342.93 C-338.72 341.55 -336.88 340.25 -335 339 C-334.67 338.01 -334.34 337.02 -334 336 C-340.08 335.82 -346.15 335.73 -352.24 335.71 C-354.3 335.7 -356.36 335.66 -358.42 335.59 C-374.16 335.12 -383.3 338.03 -395.19 348.43 C-397.5 350.43 -399.94 352.21 -402.42 353.98 C-403.87 355.05 -405.31 356.12 -406.75 357.19 C-412.11 361.15 -417.49 365.09 -422.94 368.94 C-428.59 372.95 -434.15 377.08 -439.69 381.25 C-446.61 386.46 -453.54 391.66 -460.5 396.81 C-460.9 397.11 -460.9 397.11 -462.91 398.61 C-463.65 399.16 -464.39 399.7 -465.16 400.27 C-465.48 400.51 -465.48 400.51 -467.12 401.73 C-474.48 406.71 -483.51 405.86 -491.98 404.38 C-502.13 402.27 -510.96 397.95 -520 393 C-520 392.01 -520 391.02 -520 390 C-517.7 388.22 -515.43 386.64 -513 385.06 C-511.52 384.07 -510.03 383.08 -508.55 382.09 C-507.79 381.58 -507.03 381.07 -506.25 380.54 C-502.79 378.17 -499.46 375.66 -496.12 373.12 C-490.51 368.87 -484.84 364.68 -479.12 360.56 C-478.38 360.03 -477.64 359.5 -476.88 358.95 C-474.59 357.3 -472.29 355.65 -470 354 C-466.73 351.65 -463.46 349.29 -460.19 346.94 C-459.44 346.4 -458.69 345.87 -457.92 345.31 C-457.22 344.81 -456.52 344.3 -455.79 343.78 C-455.18 343.34 -454.57 342.9 -453.93 342.44 C-451.58 340.69 -449.29 338.84 -447 337 C-479.67 336.67 -512.34 336.34 -546 336 C-546 325.11 -546 314.22 -546 303 C-476.7 302.67 -407.4 302.34 -336 302 C-339.3 297.71 -342.6 293.42 -346 289 C-347.62 286.27 -349.06 283.78 -350.38 280.94 C-350.7 280.27 -351.02 279.59 -351.35 278.9 C-357.9 264.94 -360.14 251.54 -360.38 236.25 C-360.4 235.3 -360.43 234.35 -360.45 233.37 C-360.48 223.75 -358.35 217 -356 207 C-387.35 206.83 -387.35 206.83 -546 206 C-546 195.44 -546 184.88 -546 174 C-529.66 173.83 -529.66 173.83 -447 173 C-451.29 170.03 -455.58 167.06 -460 164 C-462.92 161.91 -465.84 159.81 -468.75 157.69 C-476.74 151.89 -484.79 146.18 -492.86 140.51 C-495.82 138.42 -498.78 136.33 -501.73 134.25 C-521.58 120.22 -521.58 120.22 -528 116 C-526.57 112.7 -524.84 110.6 -522.19 108.19 C-521.85 107.87 -521.85 107.87 -520.17 106.29 C-518 105 -518 105 -515.7 104.96 C-511.83 106.45 -508.92 108.82 -505.69 111.38 C-500.29 115.54 -494.84 119.56 -489.19 123.38 C-483.24 127.4 -477.45 131.59 -471.69 135.88 C-464.53 141.2 -457.25 146.3 -449.87 151.3 C-443.61 155.55 -437.47 159.96 -431.39 164.46 C-431.13 164.65 -431.13 164.65 -429.81 165.61 C-428 167 -428 167 -426.32 168.54 C-420.59 173.53 -415.91 173.81 -408.5 173.59 C-407.96 173.58 -407.96 173.58 -405.24 173.56 C-401.82 173.53 -398.41 173.45 -395 173.38 C-392.68 173.34 -390.35 173.32 -388.03 173.29 C-382.35 173.23 -376.68 173.13 -371 173 C-373.82 170.96 -376.65 168.92 -379.47 166.88 C-379.86 166.59 -379.86 166.59 -381.85 165.15 C-387.05 161.4 -392.26 157.68 -397.5 154 C-403.36 149.87 -409.19 145.71 -415 141.5 C-426.85 132.92 -438.83 124.52 -450.81 116.12 C-451.63 115.55 -452.46 114.97 -453.3 114.38 C-457.77 111.26 -462.24 108.14 -466.71 105.04 C-467.64 104.39 -468.57 103.75 -469.52 103.08 C-471.31 101.84 -473.11 100.59 -474.91 99.35 C-475.7 98.8 -476.5 98.24 -477.33 97.67 C-478.04 97.18 -478.75 96.68 -479.48 96.18 C-479.98 95.79 -480.48 95.4 -481 95 C-481 94.67 -481 94.34 -481 94 C-473.1 93.7 -465.2 93.47 -457.29 93.33 C-453.62 93.26 -449.95 93.17 -446.27 93.02 C-429.79 92.37 -416.4 92.02 -403.45 103.73 C-402.86 104.3 -402.26 104.87 -401.65 105.46 C-399.5 107.46 -397.18 109.06 -394.72 110.66 C-394.01 111.13 -393.31 111.61 -392.58 112.1 C-391.89 112.56 -391.21 113.03 -390.5 113.5 C-384.26 117.73 -378.1 122.06 -372 126.5 C-364.27 132.13 -356.41 137.56 -348.5 142.93 C-343.64 146.25 -338.82 149.63 -334 153 C-334 132.54 -334 112.08 -334 91 C-331.08 89.54 -327.98 89.39 -324.77 88.98 C-323.26 88.79 -321.75 88.59 -320.24 88.39 C-319.85 88.34 -319.85 88.34 -317.84 88.07 C-303.32 86.16 -288.99 83.89 -274.71 80.62 C-271.98 79.99 -269.24 79.4 -266.49 78.82 C-250.03 75.27 -233.92 70.68 -217.95 65.33 C-217.27 65.1 -216.59 64.87 -215.89 64.64 C-212.52 63.5 -209.16 62.36 -205.8 61.2 C-204.58 60.78 -203.36 60.37 -202.11 59.94 C-201.03 59.57 -199.94 59.19 -198.83 58.81 C-196 58 -196 58 -192 58 C-191.67 85.72 -191.34 113.44 -191 142 C-184.4 137.05 -177.8 132.1 -171 127 C-161.06 119.69 -161.06 119.69 -156.32 116.2 C-152.65 113.5 -149.04 110.73 -145.44 107.94 C-140.54 104.14 -135.54 100.49 -130.5 96.88 C-123.77 92.05 -117.14 87.1 -110.56 82.06 C-101.57 75.17 -92.48 68.41 -83.34 61.71 C-79.41 58.83 -75.49 55.95 -71.56 53.06 C-70.78 52.49 -70 51.91 -69.19 51.32 C-62.6 46.46 -56.04 41.54 -49.5 36.62 C-42.92 31.68 -36.3 26.8 -29.67 21.93 C-25.05 18.53 -20.47 15.08 -15.94 11.56 C-10.74 7.53 -5.43 3.7 0 0 Z " fill="#ECB34C" transform="translate(776,242)" style="fill:#ECB34C;" id="__1_"/>
<path d="M0 0 C1.91 0 3.82 0 5.74 -0 C10.92 -0.01 16.11 0.05 21.29 0.12 C26.71 0.18 32.14 0.19 37.56 0.2 C47.82 0.23 58.08 0.31 68.35 0.42 C80.03 0.53 91.72 0.58 103.4 0.63 C127.44 0.74 151.47 0.91 175.51 1.14 C175.51 11.7 175.51 22.26 175.51 33.14 C140.2 33.47 104.89 33.8 68.51 34.14 C74.78 38.43 81.05 42.72 87.51 47.14 C96.64 53.7 96.64 53.7 101.11 56.95 C105.38 60.05 109.69 63.1 114.01 66.14 C119.88 70.26 125.7 74.43 131.51 78.64 C140.13 84.88 148.81 91.02 157.51 97.14 C160.68 99.36 163.84 101.59 167.01 103.82 C167.38 104.08 167.38 104.08 169.24 105.39 C174.4 109.02 174.4 109.02 175.51 110.14 C175.6 111.55 175.62 112.97 175.61 114.39 C175.6 115.24 175.6 116.1 175.6 116.98 C175.59 117.87 175.58 118.77 175.57 119.7 C175.57 120.6 175.56 121.5 175.56 122.43 C175.55 124.67 175.53 126.9 175.51 129.14 C168.58 124.91 161.99 120.36 155.48 115.53 C150.76 112.04 146 108.63 141.2 105.26 C134.44 100.51 127.72 95.7 121.03 90.85 C116.54 87.6 112.03 84.36 107.51 81.14 C102.22 77.37 96.96 73.57 91.7 69.76 C85.04 64.95 78.36 60.18 71.64 55.46 C66.06 51.53 60.5 47.56 54.95 43.58 C54.41 43.21 53.87 42.83 53.32 42.45 C51.97 41.47 50.67 40.44 49.39 39.39 C42.87 34.28 38.21 33.16 30.03 33.45 C28.98 33.46 27.93 33.47 26.85 33.48 C23.53 33.52 20.21 33.61 16.89 33.7 C14.62 33.73 12.35 33.76 10.08 33.79 C4.56 33.87 -0.97 33.99 -6.49 34.14 C-5.55 34.8 -4.61 35.47 -3.65 36.15 C-2.39 37.04 -1.14 37.94 0.12 38.83 C0.73 39.27 1.35 39.7 1.98 40.15 C6 43.02 9.93 45.97 13.82 49.01 C19.39 53.34 25.09 57.42 30.86 61.47 C36.09 65.13 41.28 68.83 46.45 72.57 C47.19 73.11 47.94 73.65 48.71 74.21 C50.22 75.3 51.73 76.4 53.24 77.49 C57 80.21 60.75 82.92 64.51 85.64 C66.01 86.72 67.51 87.8 69.01 88.89 C69.75 89.42 70.5 89.96 71.26 90.51 C114.01 121.39 114.01 121.39 116.26 123.01 C117.76 124.09 119.25 125.17 120.75 126.25 C124.55 129 128.35 131.74 132.15 134.49 C133.69 135.6 135.22 136.71 136.76 137.82 C137.51 138.36 138.26 138.91 139.03 139.46 C143.04 142.36 147.05 145.23 151.09 148.09 C156.38 151.85 161.61 155.68 166.76 159.64 C167.31 160.06 167.86 160.48 168.43 160.91 C170.57 162.57 172.59 164.22 174.51 166.14 C175.79 176.39 169.54 186.28 163.51 194.14 C161.89 195.52 160.23 196.87 158.51 198.14 C153.43 196.51 149.56 193.46 145.32 190.32 C143.7 189.14 142.08 187.95 140.46 186.77 C140.05 186.47 140.05 186.47 137.96 184.93 C134.2 182.17 130.42 179.43 126.64 176.7 C125.9 176.16 125.16 175.63 124.4 175.08 C118.81 171.05 113.17 167.08 107.51 163.14 C98.85 157.1 90.27 150.95 81.73 144.74 C77.99 142.03 74.25 139.34 70.51 136.64 C69.01 135.55 67.51 134.47 66.01 133.39 C65.27 132.85 64.53 132.31 63.76 131.76 C57.01 126.89 57.01 126.89 54.76 125.26 C53.26 124.18 51.76 123.09 50.26 122.01 C46.5 119.29 42.74 116.57 38.98 113.85 C30.99 108.07 22.97 102.33 14.9 96.65 C8.99 92.49 3.12 88.25 -2.74 84 C-8.59 79.77 -14.48 75.59 -20.39 71.44 C-26.14 67.41 -31.8 63.27 -37.49 59.14 C-37.49 81.25 -37.49 103.36 -37.49 126.14 C-42.38 125.44 -46.27 124.72 -50.86 123.26 C-51.98 122.91 -53.1 122.55 -54.26 122.19 C-58.34 120.86 -62.42 119.52 -66.49 118.14 C-67.48 117.81 -68.47 117.48 -69.49 117.14 C-69.49 93.71 -69.49 70.28 -69.49 46.14 C-63.88 43.5 -58.27 40.86 -52.49 38.14 C-48.62 35.53 -45.07 33.04 -41.49 30.14 C-40.87 29.68 -40.25 29.23 -39.62 28.76 C-34.57 24.85 -30.88 19.77 -27.02 14.74 C-26.59 14.19 -26.17 13.64 -25.73 13.07 C-24.49 11.14 -24.49 11.14 -23.58 8.64 C-19.23 -1.94 -9.79 -0.2 0 0 Z " fill="#F8F8F8" transform="translate(620.48974609375,544.86474609375)" style="fill:#F8F8F8;" id="__2_"/>
<path d="M0 0 C63.03 0 126.06 0 191 0 C191 32.01 191 64.02 191 97 C121.37 97 51.74 97 -20 97 C-18.41 93.81 -16.75 91.25 -14.62 88.43 C-1.84 71.41 4.07 52.54 4.31 31.25 C4.33 30.85 4.33 30.85 4.4 28.83 C4.5 18.66 2.1 10.49 0 0 Z " fill="#CC4B44" transform="translate(605,448)" style="fill:#CC4B44;" id="__3_"/>
<path d="M0 0 C63.03 0 126.06 0 191 0 C189.68 5.94 188.36 11.88 187 18 C186.7 22.23 186.51 26.12 186.62 30.31 C186.64 31.34 186.66 32.37 186.68 33.42 C187.2 55.04 193.72 74.18 207.48 90.99 C209 93 209 93 211 97 C141.37 97 71.74 97 0 97 C0 64.99 0 32.98 0 0 Z " fill="#CC4A44" transform="translate(230,448)" style="fill:#CC4B44;" id="__3_"/>
<path d="M0 0 C0 20.79 0 41.58 0 63 C-2.64 64.49 -2.64 64.49 -16 72 C-34.26 85.25 -42.59 97.18 -53 118 C-116.36 118 -179.72 118 -245 118 C-245 107.77 -245 97.54 -245 87 C-228.66 86.84 -228.66 86.84 -146 86 C-150.29 83.03 -154.58 80.06 -159 77 C-161.92 74.91 -164.84 72.81 -167.75 70.69 C-175.74 64.89 -183.79 59.18 -191.86 53.51 C-194.82 51.42 -197.78 49.33 -200.73 47.25 C-220.58 33.22 -220.58 33.22 -227 29 C-225.57 25.7 -223.84 23.6 -221.19 21.19 C-220.52 20.56 -219.85 19.94 -219.17 19.29 C-217 18 -217 18 -214.7 17.96 C-210.83 19.45 -207.92 21.82 -204.69 24.38 C-199.29 28.54 -193.84 32.56 -188.19 36.38 C-182.24 40.4 -176.45 44.59 -170.69 48.88 C-163.53 54.2 -156.25 59.3 -148.87 64.3 C-142.61 68.55 -136.47 72.96 -130.39 77.46 C-129.87 77.84 -129.35 78.22 -128.81 78.61 C-127 80 -127 80 -125.32 81.54 C-119.59 86.53 -114.91 86.81 -107.5 86.59 C-106.96 86.58 -106.96 86.58 -104.24 86.56 C-100.82 86.53 -97.41 86.45 -94 86.38 C-91.68 86.34 -89.35 86.32 -87.03 86.29 C-81.35 86.23 -75.68 86.13 -70 86 C-72.82 83.96 -75.65 81.92 -78.47 79.88 C-78.86 79.59 -78.86 79.59 -80.85 78.15 C-86.05 74.4 -91.26 70.68 -96.5 67 C-102.36 62.87 -108.19 58.71 -114 54.5 C-125.85 45.92 -137.83 37.52 -149.81 29.12 C-150.63 28.55 -151.46 27.97 -152.3 27.38 C-156.77 24.26 -161.24 21.14 -165.71 18.04 C-166.64 17.39 -167.57 16.75 -168.52 16.08 C-170.31 14.84 -172.11 13.59 -173.91 12.35 C-174.7 11.8 -175.5 11.24 -176.33 10.67 C-177.04 10.18 -177.75 9.68 -178.48 9.18 C-178.98 8.79 -179.48 8.4 -180 8 C-180 7.67 -180 7.34 -180 7 C-172.1 6.7 -164.2 6.47 -156.29 6.33 C-152.62 6.26 -148.95 6.17 -145.27 6.02 C-128.79 5.37 -115.4 5.02 -102.45 16.73 C-101.86 17.3 -101.26 17.87 -100.65 18.46 C-98.5 20.46 -96.18 22.06 -93.72 23.66 C-93.01 24.13 -92.31 24.61 -91.58 25.1 C-90.89 25.56 -90.21 26.03 -89.5 26.5 C-83.26 30.73 -77.1 35.06 -71 39.5 C-63.27 45.13 -55.41 50.56 -47.5 55.93 C-42.64 59.25 -37.82 62.63 -33 66 C-33 45.54 -33 25.08 -33 4 C-29.17 2.09 -24.64 2.01 -20.44 1.44 C-19.47 1.3 -18.51 1.16 -17.51 1.02 C-16.56 0.89 -15.6 0.76 -14.62 0.62 C-13.76 0.5 -12.9 0.38 -12.01 0.26 C-8.02 -0.08 -4 0 0 0 Z " fill="#F8F8F8" transform="translate(475,329)" style="fill:#F8F8F8;" id="__2_"/>
<path d="M0 0 C64.35 0 128.7 0 195 0 C196.98 3.63 198.96 7.26 201 11 C203.45 14.53 206.17 17.76 209 21 C209.52 21.6 210.04 22.21 210.57 22.83 C214.17 26.71 218.3 29.87 222.56 33 C223.09 33.39 223.61 33.78 224.15 34.19 C230.46 38.69 236.84 41.42 244 45 C244 63.48 244 81.96 244 101 C233.44 101 222.88 101 212 101 C212 86.15 212 71.3 212 56 C199.76 63.79 199.76 63.79 194.88 67.69 C189.27 72.09 183.51 76.23 177.67 80.31 C173.8 83.02 169.94 85.76 166.12 88.55 C165.32 89.13 164.52 89.72 163.69 90.32 C162.14 91.45 160.6 92.59 159.06 93.72 C157.06 95.18 155.04 96.6 153 98 C152.1 98.61 151.21 99.23 150.29 99.86 C144.98 101.7 139.69 101.31 134.12 101.19 C133.54 101.18 133.54 101.18 130.59 101.15 C127.73 101.11 124.86 101.06 122 101 C131.44 93.42 141.09 86.16 150.92 79.1 C156.48 75.11 162 71.07 167.5 67 C173.76 62.37 180.05 57.79 186.38 53.25 C192.85 48.6 199.21 43.83 205.5 38.93 C207.28 37.55 209.12 36.25 211 35 C211.33 34.01 211.66 33.02 212 32 C205.92 31.82 199.85 31.73 193.76 31.71 C191.7 31.7 189.64 31.66 187.58 31.59 C171.84 31.12 162.7 34.03 150.81 44.43 C148.5 46.43 146.06 48.21 143.58 49.98 C142.13 51.05 140.69 52.12 139.25 53.19 C133.89 57.15 128.51 61.09 123.06 64.94 C117.41 68.95 111.85 73.08 106.31 77.25 C99.39 82.46 92.46 87.66 85.5 92.81 C84.71 93.41 83.91 94 83.09 94.61 C82.35 95.16 81.61 95.7 80.84 96.27 C80.2 96.75 79.55 97.23 78.88 97.73 C71.52 102.71 62.49 101.86 54.02 100.38 C43.87 98.27 35.04 93.95 26 89 C26 88.01 26 87.02 26 86 C28.3 84.22 30.57 82.64 33 81.06 C34.48 80.07 35.97 79.08 37.45 78.09 C38.21 77.58 38.97 77.07 39.75 76.54 C43.21 74.17 46.54 71.66 49.88 69.12 C55.49 64.87 61.16 60.68 66.88 56.56 C67.25 56.3 67.25 56.3 69.12 54.95 C71.41 53.3 73.71 51.65 76 50 C79.27 47.65 82.54 45.29 85.81 42.94 C86.56 42.4 87.31 41.87 88.08 41.31 C88.78 40.81 89.48 40.3 90.21 39.78 C90.82 39.34 91.43 38.9 92.07 38.44 C94.42 36.69 96.71 34.84 99 33 C66.33 32.67 33.66 32.34 0 32 C0 21.44 0 10.88 0 0 Z " fill="#F8F8F8" transform="translate(230,546)" style="fill:#F8F8F8;" id="__2_"/>
<path d="M0 0 C0.49 6.86 0.82 13.72 1.04 20.59 C1.14 22.92 1.27 25.25 1.43 27.58 C2.73 46.33 2.73 46.33 -1.77 52.38 C-6.17 56.6 -11.15 59.63 -16.48 62.55 C-20.72 64.99 -24.55 67.98 -28.44 70.94 C-29.32 71.58 -30.19 72.23 -31.1 72.9 C-36.76 77.07 -42.38 81.28 -48 85.5 C-61.32 95.51 -74.72 105.4 -88.25 115.12 C-95.54 120.37 -102.76 125.69 -110 131 C-91.85 131.17 -91.85 131.17 0 132 C0 142.23 0 152.46 0 163 C-63.36 163 -126.72 163 -192 163 C-194.64 157.72 -197.28 152.44 -200 147 C-202.95 142.88 -205.85 138.94 -209 135 C-209.66 134.01 -210.32 133.02 -211 132 C-210.12 132.03 -209.24 132.07 -208.33 132.1 C-177.09 132.97 -177.09 132.97 -163.97 120.76 C-160.42 117.58 -156.49 114.9 -152.62 112.12 C-151.02 110.94 -149.42 109.76 -147.82 108.57 C-143.05 105.04 -138.28 101.52 -133.5 98 C-131.92 96.83 -130.33 95.67 -128.75 94.5 C-119.25 87.5 -119.25 87.5 -116.87 85.75 C-115.29 84.58 -113.71 83.42 -112.13 82.25 C-108.14 79.31 -104.14 76.37 -100.14 73.43 C-92.72 67.97 -85.3 62.49 -77.94 56.94 C-71.68 52.23 -65.35 47.63 -58.99 43.07 C-52.42 38.33 -45.94 33.47 -39.48 28.6 C-33.16 23.84 -26.76 19.2 -20.33 14.59 C-14.55 10.44 -8.91 6.13 -3.31 1.73 C-1 0 -1 0 0 0 Z " fill="#F9F8F8" transform="translate(796,284)" style="fill:#F8F8F8;" id="__2_"/>
<path d="M0 0 C0.35 0.3 0.35 0.3 2.11 1.83 C1.2 2.51 0.29 3.19 -0.65 3.89 C-7.73 9.19 -14.79 14.51 -21.81 19.89 C-28.96 25.36 -36.13 30.78 -43.5 35.96 C-48.9 39.78 -54.14 43.8 -59.39 47.83 C-65.16 52.25 -70.93 56.65 -76.89 60.83 C-82.73 64.93 -88.41 69.24 -94.07 73.58 C-103.15 80.53 -112.32 87.36 -121.55 94.11 C-125.48 96.99 -129.4 99.88 -133.32 102.77 C-134.11 103.34 -134.89 103.92 -135.69 104.51 C-141.45 108.75 -147.17 113.03 -152.89 117.33 C-159.6 122.37 -166.32 127.4 -173.07 132.39 C-173.83 132.95 -174.58 133.51 -175.36 134.09 C-180.45 137.84 -185.61 141.31 -190.89 144.83 C-190.89 116.78 -190.89 88.73 -190.89 59.83 C-191.55 59.5 -192.21 59.17 -192.89 58.83 C-191.87 58.5 -190.86 58.17 -189.81 57.82 C-162.22 48.58 -135.33 36.93 -108.89 24.83 C-108.35 24.58 -108.35 24.58 -105.64 23.34 C-99.14 20.36 -92.66 17.36 -86.18 14.35 C-80.48 11.71 -74.78 9.08 -69.07 6.45 C-67.03 5.51 -64.98 4.56 -62.93 3.62 C-61.95 3.17 -60.97 2.71 -59.96 2.25 C-57.77 1.24 -55.57 0.22 -53.38 -0.81 C-52.81 -1.08 -52.81 -1.08 -49.89 -2.44 C-49.36 -2.68 -49.36 -2.68 -46.71 -3.92 C-32.54 -10.19 -12.57 -9.46 0 0 Z " fill="#265381" transform="translate(774.88671875,240.171875)" style="fill:#265381;" id="__4_"/>
<path d="M0 0 C2.91 1.45 5.16 2.74 7.73 4.62 C8.44 5.14 9.15 5.65 9.89 6.19 C10.27 6.47 10.27 6.47 12.19 7.88 C13.81 9.06 15.43 10.24 17.06 11.42 C17.88 12.02 18.71 12.62 19.55 13.23 C23.26 15.91 27 18.55 30.75 21.19 C37.63 26.03 44.48 30.9 51.32 35.8 C52.99 36.99 54.67 38.19 56.35 39.39 C65.15 45.66 73.92 51.99 82.69 58.33 C86.46 61.05 90.23 63.78 94 66.5 C95.5 67.58 97 68.67 98.5 69.75 C99.24 70.29 99.99 70.82 100.75 71.38 C107.5 76.25 107.5 76.25 109.75 77.88 C111.25 78.96 112.75 80.04 114.25 81.12 C118 83.83 121.73 86.53 125.46 89.25 C133.11 94.81 140.8 100.26 148.62 105.56 C155.17 110 161.56 114.59 167.84 119.39 C171.64 122.28 175.5 125.06 179.44 127.76 C180.36 128.39 181.29 129.02 182.24 129.68 C184.05 130.92 185.87 132.15 187.7 133.37 C188.52 133.93 189.34 134.49 190.19 135.07 C190.92 135.56 191.66 136.06 192.42 136.56 C192.94 137.04 193.46 137.51 194 138 C194 138.99 194 139.98 194 141 C182.6 147.89 171.32 151.05 157.91 148.39 C146.09 144.78 135.74 137.51 125.37 130.99 C108.93 120.66 92.22 110.97 75 102 C74.31 101.64 73.62 101.28 72.91 100.91 C51.36 89.71 29.76 79.49 7 71 C4.36 70.01 1.72 69.02 -1 68 C-0.67 45.56 -0.34 23.12 0 0 Z " fill="#265381" transform="translate(583,604)" style="fill:#265381;" id="__4_"/>
<path d="M0 0 C6.44 5.29 8.22 13.14 9.48 21.02 C9.89 25.91 10.17 29.51 7.04 33.5 C4.14 35.88 1.15 37.95 -2 40 C-3.61 41.15 -5.21 42.31 -6.81 43.47 C-8.56 44.73 -10.32 45.97 -12.08 47.21 C-16.49 50.33 -20.84 53.54 -25.19 56.75 C-25.99 57.34 -26.79 57.94 -27.62 58.55 C-29.26 59.76 -30.9 60.97 -32.54 62.19 C-36.53 65.13 -40.51 68.06 -44.5 71 C-46.08 72.16 -47.66 73.33 -49.24 74.49 C-52.44 76.85 -55.65 79.21 -58.86 81.57 C-66.28 87.03 -73.7 92.51 -81.06 98.06 C-87.41 102.85 -93.84 107.51 -100.29 112.15 C-105.88 116.17 -111.4 120.27 -116.9 124.41 C-123.6 129.46 -130.35 134.43 -137.11 139.4 C-140.45 141.85 -143.78 144.32 -147.11 146.79 C-147.95 147.41 -148.79 148.03 -149.66 148.67 C-151.25 149.85 -152.83 151.03 -154.42 152.21 C-155.89 153.29 -157.36 154.36 -158.85 155.42 C-161 157 -161 157 -162.95 158.73 C-170.17 164.6 -178.27 163.67 -187.06 163.38 C-188.61 163.34 -190.16 163.32 -191.71 163.29 C-195.47 163.23 -199.24 163.12 -203 163 C-203.67 159.31 -204.13 155.76 -204 152 C-201.92 149.23 -201.92 149.23 -198.75 147.19 C-197.54 146.36 -196.33 145.54 -195.12 144.71 C-194.45 144.28 -193.79 143.85 -193.11 143.41 C-189.26 140.84 -185.58 138.02 -181.88 135.25 C-180.24 134.05 -178.6 132.84 -176.96 131.64 C-171.34 127.52 -165.73 123.38 -160.12 119.25 C-156.19 116.35 -152.26 113.46 -148.32 110.57 C-138.96 103.71 -129.7 96.74 -120.48 89.68 C-115.19 85.63 -109.83 81.69 -104.38 77.86 C-99.07 74.1 -93.91 70.15 -88.75 66.19 C-81.4 60.55 -73.98 55.04 -66.46 49.65 C-61.61 46.18 -56.82 42.65 -52.06 39.06 C-46.3 34.72 -40.5 30.41 -34.69 26.12 C-33.9 25.55 -33.12 24.97 -32.31 24.37 C-28.13 21.3 -23.96 18.24 -19.78 15.18 C-18.93 14.55 -18.08 13.92 -17.2 13.28 C-15.57 12.09 -13.94 10.89 -12.32 9.71 C-8.09 6.6 -3.99 3.41 0 0 Z " fill="#CB4D45" transform="translate(787,253)" style="fill:#CC4B44;" id="__3_"/>
<path d="M0 0 C3.1 1.39 5.37 3.02 7.81 5.38 C8.44 5.96 9.06 6.55 9.71 7.15 C11 9 11 9 10.8 10.92 C9.8 13.51 8.66 14.43 6.46 16.1 C5.72 16.67 4.98 17.24 4.22 17.82 C3.43 18.42 2.63 19.01 1.81 19.62 C1.4 19.94 1.4 19.94 -0.67 21.52 C-6.47 25.92 -12.36 30.19 -18.32 34.38 C-29.36 42.18 -40.15 50.34 -50.95 58.47 C-56 62.27 -61.09 66.01 -66.19 69.75 C-73.12 74.84 -79.98 80.02 -86.81 85.25 C-93.01 89.99 -99.24 94.65 -105.62 99.14 C-110.93 102.9 -116.09 106.85 -121.25 110.81 C-129.25 116.94 -137.34 122.91 -145.53 128.79 C-157.02 137.03 -168.37 145.48 -179.66 154.01 C-180.26 154.46 -180.86 154.91 -181.48 155.38 C-181.77 155.6 -181.77 155.6 -183.23 156.7 C-184.46 157.6 -185.71 158.46 -186.97 159.3 C-191.8 162.49 -191.8 162.49 -192.9 165.24 C-192.91 165.92 -192.93 166.61 -192.94 167.31 C-192.96 168.53 -192.98 169.75 -193 171 C-196.41 169.06 -199.3 166.95 -202.25 164.38 C-208 160 -208 160 -225 151 C-225 123.61 -225 96.22 -225 68 C-196 58 -196 58 -192 58 C-191.67 85.72 -191.34 113.44 -191 142 C-184.4 137.05 -177.8 132.1 -171 127 C-161.06 119.69 -161.06 119.69 -156.32 116.2 C-152.65 113.5 -149.04 110.73 -145.44 107.94 C-140.54 104.14 -135.54 100.49 -130.5 96.88 C-123.77 92.05 -117.14 87.1 -110.56 82.06 C-101.57 75.17 -92.48 68.41 -83.34 61.71 C-79.41 58.83 -75.49 55.95 -71.56 53.06 C-70.78 52.49 -70 51.91 -69.19 51.32 C-62.6 46.46 -56.04 41.54 -49.5 36.62 C-42.92 31.68 -36.3 26.8 -29.67 21.93 C-25.05 18.53 -20.47 15.08 -15.94 11.56 C-10.74 7.53 -5.43 3.7 0 0 Z " fill="#F7F6F6" transform="translate(776,242)" style="fill:#F8F8F8;" id="__2_"/>
<path d="M0 0 C0 30.69 0 61.38 0 93 C-11 90.8 -11 90.8 -16.05 89.67 C-35.75 85.39 -54.87 82.8 -75 80 C-75 53.93 -75 27.86 -75 1 C-66 3 -66 3 -62.75 3.84 C-54.96 5.83 -47.71 6.47 -39.69 6.38 C-38.51 6.37 -37.34 6.36 -36.13 6.35 C-23.89 6.15 -11.47 0 0 0 Z " fill="#CB4A44" transform="translate(550,568)" style="fill:#CC4B44;" id="__3_"/>
<path d="M0 0 C6.67 -0.31 13.33 -0.52 20 -0.66 C22.26 -0.72 24.52 -0.8 26.78 -0.91 C42.56 -1.62 52.39 -0.09 64.36 10.56 C66.46 12.4 68.7 14 71 15.59 C72.33 16.56 73.67 17.53 75 18.5 C80.8 22.71 86.64 26.88 92.5 31 C99.13 35.66 105.71 40.39 112.27 45.14 C117.32 48.8 122.4 52.41 127.5 56 C134.12 60.66 140.7 65.38 147.26 70.14 C153.07 74.35 158.93 78.5 164.82 82.6 C166.13 83.52 167.43 84.46 168.71 85.42 C171 87 171 87 174.15 88.64 C182.22 93.36 182.22 93.36 183.62 98.11 C184.5 104.25 184.09 110.39 183.75 116.56 C183.69 118.45 183.63 120.33 183.59 122.22 C183.45 126.82 183.25 131.41 183 136 C182.71 135.62 182.71 135.62 181.26 133.71 C179.22 131.27 177.37 129.53 174.83 127.65 C174.03 127.05 173.23 126.45 172.4 125.84 C171.97 125.52 171.97 125.52 169.81 123.94 C168.92 123.28 168.03 122.62 167.11 121.94 C160.22 116.84 153.23 111.87 146.21 106.96 C139.51 102.26 132.89 97.44 126.27 92.64 C122.51 89.92 118.76 87.21 115 84.5 C113.5 83.42 112 82.33 110.5 81.25 C109.76 80.71 109.01 80.18 108.25 79.62 C94 69.33 79.75 59.04 65.5 48.75 C64.76 48.21 64.01 47.68 63.25 47.12 C61.75 46.04 60.26 44.97 58.77 43.89 C54.93 41.11 51.09 38.34 47.25 35.57 C43.48 32.85 39.7 30.12 35.93 27.39 C34.28 26.2 32.64 25.02 30.99 23.83 C24.85 19.39 18.79 14.86 12.74 10.3 C9.53 7.88 6.31 5.5 3.02 3.2 C2.02 2.47 1.03 1.75 0 1 C0 0.67 0 0.34 0 0 Z " fill="#CC4C45" transform="translate(613,578)" style="fill:#CC4B44;" id="__3_"/>
<path d="M0 0 C22.77 0 45.54 0 69 0 C67.02 3.63 65.04 7.26 63 11 C61.77 13.3 60.55 15.6 59.34 17.9 C58.69 19.12 58.04 20.34 57.39 21.57 C57.06 22.19 56.74 22.81 56.4 23.45 C50.45 34.66 44.37 45.77 38.02 56.76 C33.89 63.89 29.9 71.1 25.89 78.3 C14.1 99.45 14.1 99.45 6.69 102.25 C-1.07 103.83 -5.73 103.33 -12.66 99.56 C-17.84 96.11 -21.04 91.88 -23 86 C-25.23 71.77 -18.98 56.82 -13.98 43.75 C-12.75 40.31 -11.76 36.82 -10.75 33.31 C-7.45 22.12 -3.69 11.07 0 0 Z " fill="#255382" transform="translate(313,688)" style="fill:#265381;" id="__4_"/>
<path d="M0 0 C0 26.73 0 53.46 0 81 C-12 78 -12 78 -15.43 77.05 C-35.58 71.9 -55.41 75.4 -75 81 C-75 60.21 -75 39.42 -75 18 C-75.66 17.67 -76.32 17.34 -77 17 C-76.18 16.84 -75.35 16.69 -74.5 16.53 C-52.67 12.39 -30.92 8.25 -9.61 1.88 C-9.2 1.76 -9.2 1.76 -7.11 1.14 C-6.39 0.92 -5.67 0.7 -4.92 0.47 C-3 0 -3 0 0 0 Z " fill="#CC4B45" transform="translate(550,311)" style="fill:#CC4B44;" id="__3_"/>
<path d="M0 0 C0 27.06 0 54.12 0 82 C-36.63 82 -73.26 82 -111 82 C-105.38 76.38 -105.38 76.38 -102.24 74.16 C-101.54 73.66 -100.85 73.16 -100.13 72.65 C-99.38 72.13 -98.64 71.6 -97.88 71.06 C-96.26 69.91 -94.64 68.75 -93.02 67.59 C-92.6 67.3 -92.6 67.3 -90.5 65.8 C-86.5 62.92 -82.53 59.99 -78.56 57.06 C-77.78 56.48 -76.99 55.9 -76.18 55.3 C-74.58 54.12 -72.98 52.94 -71.39 51.76 C-69.02 50.02 -66.65 48.27 -64.28 46.53 C-55.32 39.94 -46.39 33.31 -37.5 26.62 C-30.88 21.65 -24.22 16.72 -17.53 11.83 C-12.88 8.42 -8.34 4.92 -3.85 1.3 C-2 0 -2 0 0 0 Z " fill="#265481" transform="translate(796,334)" style="fill:#265381;" id="__4_"/>
<path d="M0 0 C35.64 0 71.28 0 108 0 C108 25.41 108 50.82 108 77 C101.28 72.73 94.76 68.51 88.38 63.81 C86.81 62.67 85.25 61.54 83.68 60.4 C82.9 59.83 82.12 59.26 81.32 58.68 C77.71 56.07 74.08 53.5 70.44 50.94 C69.74 50.45 69.04 49.95 68.32 49.45 C66.22 47.96 64.11 46.48 62 45 C52.54 38.35 43.11 31.65 33.75 24.87 C28.52 21.09 23.27 17.34 18 13.62 C17.3 13.13 16.59 12.63 15.87 12.12 C11.13 8.78 6.37 5.48 1.59 2.21 C1.07 1.81 0.54 1.41 0 1 C0 0.67 0 0.34 0 0 Z " fill="#245381" transform="translate(688,578)" style="fill:#265381;" id="__4_"/>
<path d="M0 0 C0.65 0.51 1.29 1.02 1.96 1.55 C3.44 2.65 4.92 3.76 6.41 4.86 C7.2 5.46 7.99 6.05 8.8 6.67 C13.37 10.06 18.08 13.26 22.77 16.48 C30.54 21.87 38.25 27.34 45.91 32.89 C53.66 38.52 61.5 44.04 69.33 49.55 C75.01 53.54 80.68 57.53 86.33 61.55 C87.15 62.13 87.97 62.71 88.82 63.31 C91.33 65.09 93.83 66.88 96.33 68.67 C97.12 69.23 97.9 69.79 98.71 70.36 C99.07 70.62 99.07 70.62 100.9 71.93 C101.54 72.39 102.18 72.85 102.84 73.32 C104.33 74.55 104.33 74.55 105.33 76.55 C98.43 76.78 91.53 76.93 84.63 77.04 C82.29 77.09 79.94 77.15 77.6 77.23 C55.63 77.94 55.63 77.94 48.24 72.38 C46.57 70.8 44.93 69.19 43.33 67.55 C41.93 66.48 40.5 65.45 39.04 64.47 C38.72 64.24 38.72 64.24 37.1 63.1 C36.46 62.65 35.81 62.2 35.15 61.73 C34.43 61.23 33.72 60.73 32.98 60.21 C30.06 58.16 27.14 56.11 24.22 54.07 C16.08 48.36 8 42.59 0.02 36.67 C-10.63 28.77 -21.5 21.19 -32.41 13.65 C-33.31 13.03 -34.2 12.4 -35.13 11.76 C-35.95 11.19 -36.77 10.63 -37.61 10.04 C-39.67 8.55 -39.67 8.55 -41.67 6.55 C-29.76 0.03 -12.51 -9.27 0 0 Z " fill="#CC4C46" transform="translate(300.665771484375,339.452880859375)" style="fill:#CC4B44;" id="__3_"/>
<path d="M0 0 C2.1 0.05 4.21 0.1 6.31 0.14 C11.42 0.25 16.52 0.42 21.62 0.62 C20.79 5.53 17.54 7.32 13.69 10.06 C12.98 10.58 12.26 11.1 11.53 11.64 C9.24 13.31 6.93 14.97 4.62 16.62 C3.12 17.71 1.62 18.79 0.12 19.88 C-2.13 21.51 -4.39 23.14 -6.65 24.76 C-11.69 28.39 -16.67 32.07 -21.62 35.81 C-26.98 39.85 -32.38 43.8 -37.85 47.68 C-47.47 54.51 -56.94 61.55 -66.38 68.62 C-62.75 68.79 -62.75 68.79 -44.38 69.62 C-44.38 69.96 -44.38 70.28 -44.38 70.62 C-68.72 70.86 -93.04 70.2 -117.38 69.62 C-114.42 67.25 -111.45 64.91 -108.4 62.66 C-107.66 62.12 -106.91 61.57 -106.15 61.01 C-105.36 60.43 -104.56 59.85 -103.75 59.25 C-102.04 57.99 -100.33 56.74 -98.62 55.48 C-98.19 55.16 -98.19 55.16 -95.98 53.54 C-93.5 51.71 -91.01 49.88 -88.54 48.05 C-80.11 41.83 -71.66 35.65 -63.15 29.53 C-56.88 25.01 -50.65 20.43 -44.45 15.82 C-42.95 14.71 -41.45 13.63 -39.93 12.55 C-37.38 10.62 -37.38 10.62 -34.5 8 C-23.94 -1.27 -13.49 -0.56 0 0 Z " fill="#CA4C45" transform="translate(420.375,577.375)" style="fill:#CC4B44;" id="__3_"/>
<path d="M0 0 C8.68 4.86 16.68 10.63 24.77 16.41 C27.62 18.44 30.48 20.45 33.34 22.46 C41.41 28.14 49.42 33.89 57.41 39.68 C60.61 42 63.82 44.3 67.03 46.61 C67.85 47.19 68.67 47.78 69.52 48.39 C71.1 49.52 72.67 50.65 74.25 51.78 C74.96 52.29 75.67 52.79 76.4 53.32 C77.03 53.77 77.65 54.21 78.29 54.67 C80 56 80 56 83 59 C50 59 17 59 -17 59 C-17 30.8 -17 30.8 -12 19 C-11.6 18.05 -11.21 17.1 -10.8 16.12 C-8.03 10.1 -4.24 5.06 0 0 Z " fill="#26537F" transform="translate(247,357)" style="fill:#265381;" id="__4_"/>
<path d="M0 0 C33 0 66 0 100 0 C91.4 8.6 81.46 15.44 71.52 22.39 C65.87 26.36 60.33 30.46 54.83 34.62 C48.31 39.55 41.67 44.28 35 49 C34.38 49.46 33.76 49.92 33.11 50.4 C28.21 54 28.21 54 26 54 C25.67 54.66 25.34 55.32 25 56 C12.12 45.84 3.91 32.55 0.19 16.5 C-0.11 11.01 0 5.5 0 0 Z " fill="#26537F" transform="translate(230,578)" style="fill:#265381;" id="__4_"/>
<path d="M0 0 C0 20.46 0 40.92 0 62 C-2.89 60.55 -5.32 59.19 -7.95 57.38 C-8.71 56.86 -9.46 56.35 -10.24 55.81 C-10.65 55.53 -10.65 55.53 -12.69 54.12 C-13.53 53.55 -14.37 52.97 -15.24 52.37 C-24.25 46.17 -33.17 39.85 -42.08 33.52 C-51.13 27.1 -60.22 20.76 -69.41 14.54 C-79.91 7.4 -79.91 7.4 -84 4 C-84 3.67 -84 3.34 -84 3 C-83.71 3 -83.71 3 -82.24 2.98 C-28.63 2.22 -28.63 2.22 -9.37 0.17 C-6.26 -0.05 -3.12 0 0 0 Z " fill="#24527F" transform="translate(442,333)" style="fill:#265381;" id="__4_"/>
<path d="M0 0 C0 7.92 0 15.84 0 24 C-12.64 28.12 -24.39 30.39 -37.75 30.38 C-38.88 30.37 -40.01 30.37 -41.18 30.37 C-53.56 30.2 -63.4 27.35 -75 23 C-75 15.74 -75 8.48 -75 1 C-66 3 -66 3 -62.75 3.84 C-54.96 5.83 -47.71 6.47 -39.69 6.38 C-38.51 6.37 -37.34 6.36 -36.13 6.35 C-23.89 6.15 -11.47 0 0 0 Z " fill="#992F34" transform="translate(550,568)" style="fill:#992F34;" id="__5_"/>
<path d="M0 0 C2.42 2.05 4.38 4.28 6.45 6.68 C12.39 13.15 21.24 18.56 30.15 19.24 C44.1 19.51 54.37 16.35 65 7 C66.1 5.69 67.16 4.36 68.19 3 C69.78 0.97 70.51 0.13 73.03 -0.54 C75.95 -0.66 78.38 -0.31 81 1 C82.73 4.46 82.93 7.33 82 11 C75.34 23.1 62.9 29.87 50.29 34.12 C35.57 38.04 22.43 36.46 8.99 29.43 C1.73 25.09 -6.76 19.13 -10 11 C-10.42 7.07 -10.59 4.89 -8.38 1.56 C-5.24 -0.5 -3.68 -0.68 0 0 Z " fill="#050302" transform="translate(477,499)" style="fill:#060507;" id="__0_"/>
<path d="M0 0 C0 14.85 0 29.7 0 45 C-21.45 45 -42.9 45 -65 45 C-61.83 42.62 -58.64 40.36 -55.38 38.12 C-47.61 32.78 -39.99 27.25 -32.37 21.72 C-26.23 17.27 -20.09 12.83 -13.94 8.4 C-12.72 7.52 -11.5 6.64 -10.28 5.75 C-8.86 4.73 -7.43 3.71 -6 2.69 C-5.26 2.16 -4.51 1.62 -3.75 1.07 C-2 0 -2 0 0 0 Z " fill="#26537E" transform="translate(442,602)" style="fill:#265381;" id="__4_"/>
<path d="M0 0 C0.44 -0 0.44 -0 2.65 -0.01 C5.58 -0.02 8.5 0.01 11.43 0.03 C13.53 0.04 15.63 0.03 17.73 0.03 C23.43 0.03 29.13 0.06 34.83 0.09 C40.79 0.13 46.74 0.13 52.7 0.13 C63.98 0.15 75.26 0.19 86.54 0.24 C99.38 0.3 112.22 0.32 125.06 0.35 C151.48 0.4 177.9 0.49 204.31 0.6 C204.31 0.93 204.31 1.26 204.31 1.6 C203.82 1.6 203.82 1.6 201.31 1.58 C177.15 1.42 153 1.33 128.84 1.32 C117.16 1.31 105.48 1.28 93.8 1.19 C83.62 1.12 73.44 1.09 63.26 1.11 C57.87 1.12 52.48 1.11 47.09 1.04 C42.01 0.98 36.94 0.98 31.86 1.02 C30 1.03 28.14 1.01 26.28 0.97 C12.56 0.7 12.56 0.7 8.79 3.89 C5.85 7.42 4.13 11.39 2.31 15.6 C-7.42 30.24 -22.01 39.38 -37.69 46.6 C-38.68 46.6 -39.67 46.6 -40.69 46.6 C-40.69 69.7 -40.69 92.8 -40.69 116.6 C-41.02 116.6 -41.35 116.6 -41.69 116.6 C-41.69 85.91 -41.69 55.22 -41.69 23.6 C-35.75 20.3 -29.81 17 -23.69 13.6 C-14.86 7.05 -14.86 7.05 -11.6 3.02 C-7.79 -0.14 -4.73 -0.08 0 0 Z " fill="#CABBBB" transform="translate(591.6875762939453,544.3987274169922)" style="fill:#CABBBB;" id="__6_"/>
<path d="M0 0 C27.37 -0.16 54.75 -0.29 82.12 -0.36 C94.83 -0.4 107.54 -0.45 120.25 -0.53 C131.33 -0.6 142.4 -0.64 153.48 -0.66 C159.35 -0.67 165.21 -0.69 171.08 -0.74 C176.6 -0.79 182.12 -0.8 187.64 -0.79 C189.67 -0.79 191.7 -0.81 193.72 -0.83 C210.94 -1.05 210.94 -1.05 216.09 3.4 C217.09 4.57 218.07 5.77 219 7 C227.23 13.79 235.25 18.13 245 23 C245 49.4 245 75.8 245 103 C241.37 103 237.74 103 234 103 C234 102.67 234 102.34 234 102 C237.3 102 240.6 102 244 102 C243.67 83.52 243.34 65.04 243 46 C237.72 43.36 232.44 40.72 227 38 C214.22 28.91 199.02 17.1 195 1 C130.65 1 66.3 1 0 1 C0 0.67 0 0.34 0 0 Z " fill="#CABDBD" transform="translate(230,545)" style="fill:#CABBBB;" id="__6_"/>
<path d="M0 0 C4.15 2.8 7.62 6.43 9.88 10.94 C10.42 15.89 10.44 19.81 8.19 24.31 C3.61 29.51 -0.52 32.46 -7.44 33.38 C-12.96 32.72 -17.03 30.58 -20.52 26.18 C-23.45 21.07 -24.33 15.71 -23.12 9.94 C-20.97 5.58 -18.22 2.7 -14.25 -0.06 C-9.13 -1.7 -5.09 -1.73 0 0 Z " fill="#050302" transform="translate(550.125,447.0625)" style="fill:#060507;" id="__0_"/>
<path d="M0 0 C5.5 2.51 9.19 5.83 11.94 11.32 C12.53 17 12.23 21.49 8.94 26.32 C4.52 30.66 1.37 32.48 -4.81 32.63 C-10.09 32.56 -13.19 32.19 -17.06 28.32 C-20.41 23.66 -21.74 19.14 -21.45 13.42 C-20.34 7.36 -15.69 3.84 -11.06 0.32 C-7.47 -1.48 -3.78 -1.25 0 0 Z " fill="#040302" transform="translate(487.0625,446.68359375)" style="fill:#060507;" id="__0_"/>
<path d="M0 0 C1.26 0 2.52 0 3.82 0.01 C4.51 0.01 5.2 0.01 5.91 0.01 C8.21 0.01 10.51 0.01 12.81 0.02 C14.4 0.02 15.99 0.03 17.58 0.03 C21.78 0.03 25.97 0.04 30.17 0.05 C34.44 0.06 38.72 0.07 42.99 0.07 C51.39 0.08 59.79 0.1 68.18 0.12 C67.37 1.77 66.56 3.41 65.75 5.06 C65.29 5.97 64.84 6.89 64.38 7.84 C63.18 10.12 63.18 10.12 62.18 11.12 C60.04 11.21 57.89 11.24 55.74 11.23 C55.4 11.23 55.4 11.23 53.7 11.23 C51.46 11.23 49.23 11.23 46.99 11.22 C45.45 11.22 43.9 11.21 42.36 11.21 C38.28 11.21 34.21 11.2 30.13 11.19 C25.97 11.18 21.82 11.17 17.66 11.17 C9.5 11.16 1.34 11.14 -6.82 11.12 C-6.34 9.47 -5.86 7.83 -5.38 6.18 C-5.11 5.27 -4.84 4.35 -4.57 3.41 C-3.5 0.15 -3.5 0.15 0 0 Z " fill="#1F1E20" transform="translate(319.81568908691406,676.8797454833984)" style="fill:#060507;" id="__0_"/>
<path d="M0 0 C0.33 0 0.66 0 1 0 C1.31 10.81 1.36 20.6 -2 31 C-2.66 33.31 -3.32 35.62 -4 38 C-9.61 38 -15.22 38 -21 38 C-19.41 34.81 -17.75 32.25 -15.62 29.43 C-8.75 20.28 -4.18 10.63 0 0 Z " fill="#A23133" transform="translate(606,507)" style="fill:#992F34;" id="__5_"/>
<path d="M0 0 C3.3 1.65 3.77 5.38 5 8.69 C7.97 16.32 11.79 22.57 16.77 29.05 C19 32 19 32 22 37 C16.39 37 10.78 37 5 37 C1.59 24.43 -0.83 13.07 0 0 Z " fill="#AB3435" transform="translate(419,508)" style="fill:#CC4B44;" id="__3_"/>
<path d="M0 0 C0.66 0.33 1.32 0.66 2 1 C-3.92 7.7 -3.92 7.7 -8.44 8.94 C-9.28 8.96 -10.13 8.98 -11 9 C-10.65 8.72 -10.65 8.72 -8.88 7.31 C-5.89 4.91 -2.94 2.46 0 0 Z " fill="#F3E0DD" transform="translate(363,638)" style="fill:#F8F8F8;" id="__2_"/>

       </g>
     </svg>